<svg height="512pt" viewBox="0 0 512 512" width="512pt" xmlns="http://www.w3.org/2000/svg"><path d="m319.246094 166.03125-163.886719 75.214844c-8.285156 3.804687-13.046875 12.429687-11.84375 21.46875 1.199219 9.039062 8.046875 16.125 17.039063 17.632812l61.226562 10.261719 6.738281 55.714844c1.105469 9.125 7.933594 16.304687 16.996094 17.859375 1.195313.203125 2.386719.304687 3.5625.304687 7.742187-.003906 14.867187-4.328125 18.410156-11.476562l78.847657-159.0625c3.9375-7.9375 2.492187-17.175781-3.679688-23.535157-6.167969-6.355468-15.359375-8.078124-23.410156-4.382812zm-64.707032 145.5625-3.816406-31.542969c-1.089844-9.019531-8.113281-16.371093-17.074218-17.871093l-38.074219-6.378907 112.128906-51.460937zm0 0"/><path d="m437.019531 74.980469c-48.351562-48.351563-112.640625-74.980469-181.019531-74.980469s-132.667969 26.628906-181.019531 74.980469c-48.351563 48.351562-74.980469 112.640625-74.980469 181.019531s26.628906 132.667969 74.980469 181.019531c48.351562 48.351563 112.640625 74.980469 181.019531 74.980469s132.667969-26.628906 181.019531-74.980469c48.351563-48.351562 74.980469-112.640625 74.980469-181.019531s-26.628906-132.667969-74.980469-181.019531zm-21.214843 340.824219c-42.683594 42.6875-99.4375 66.195312-159.804688 66.195312s-117.121094-23.507812-159.804688-66.195312c-42.6875-42.683594-66.195312-99.4375-66.195312-159.804688s23.507812-117.121094 66.195312-159.804688c42.683594-42.6875 99.4375-66.195312 159.804688-66.195312s117.121094 23.507812 159.804688 66.195312c42.6875 42.683594 66.195312 99.4375 66.195312 159.804688s-23.507812 117.121094-66.195312 159.804688zm0 0"/><path d="m256 54.128906c-111.3125 0-201.871094 90.558594-201.871094 201.871094s90.558594 201.871094 201.871094 201.871094 201.871094-90.558594 201.871094-201.871094-90.558594-201.871094-201.871094-201.871094zm0 373.742188c-94.769531 0-171.871094-77.101563-171.871094-171.871094s77.101563-171.871094 171.871094-171.871094 171.871094 77.101563 171.871094 171.871094-77.101563 171.871094-171.871094 171.871094zm0 0"/></svg>